<svg xmlns="http://www.w3.org/2000/svg" viewBox="0 0 92 32" fill="none">
  <rect x="0" y="4" width="24" height="24" rx="6" fill="#22c55e"/>
  <path d="M5 12h14v1.5H5V12zm0 4h10v1.5H5V16zm0 4h12v1.5H5V20z" fill="#0a0a0a"/>
  <path d="M35.65625 22.5H33.1865234375V13.166015625H35.48046875V14.4931640625Q36.0693359375 13.552734375 36.53955078125 13.25390625Q37.009765625 12.955078125 37.607421875 12.955078125Q38.451171875 12.955078125 39.2333984375 13.4208984375L38.46875 15.57421875Q37.8447265625 15.169921875 37.30859375 15.169921875Q36.7900390625 15.169921875 36.4296875 15.45556640625Q36.0693359375 15.7412109375 35.86279296875 16.48828125Q35.65625 17.2353515625 35.65625 19.6171875Z M39.7255859375 17.701171875Q39.7255859375 16.470703125 40.33203125 15.3193359375Q40.9384765625 14.16796875 42.05029296875 13.5615234375Q43.162109375 12.955078125 44.533203125 12.955078125Q46.6513671875 12.955078125 48.0048828125 14.33056640625Q49.3583984375 15.7060546875 49.3583984375 17.806640625Q49.3583984375 19.9248046875 47.99169921875 21.31787109375Q46.625 22.7109375 44.55078125 22.7109375Q43.267578125 22.7109375 42.10302734375 22.130859375Q40.9384765625 21.55078125 40.33203125 20.43017578125Q39.7255859375 19.3095703125 39.7255859375 17.701171875ZM42.2568359375 17.8330078125Q42.2568359375 19.2216796875 42.916015625 19.9599609375Q43.5751953125 20.6982421875 44.5419921875 20.6982421875Q45.5087890625 20.6982421875 46.16357421875 19.9599609375Q46.818359375 19.2216796875 46.818359375 17.8154296875Q46.818359375 16.4443359375 46.16357421875 15.7060546875Q45.5087890625 14.9677734375 44.5419921875 14.9677734375Q43.5751953125 14.9677734375 42.916015625 15.7060546875Q42.2568359375 16.4443359375 42.2568359375 17.8330078125Z M50.720703125 17.701171875Q50.720703125 16.470703125 51.3271484375 15.3193359375Q51.93359375 14.16796875 53.04541015625 13.5615234375Q54.1572265625 12.955078125 55.5283203125 12.955078125Q57.646484375 12.955078125 59.0 14.33056640625Q60.353515625 15.7060546875 60.353515625 17.806640625Q60.353515625 19.9248046875 58.98681640625 21.31787109375Q57.6201171875 22.7109375 55.5458984375 22.7109375Q54.2626953125 22.7109375 53.09814453125 22.130859375Q51.93359375 21.55078125 51.3271484375 20.43017578125Q50.720703125 19.3095703125 50.720703125 17.701171875ZM53.251953125 17.8330078125Q53.251953125 19.2216796875 53.9111328125 19.9599609375Q54.5703125 20.6982421875 55.537109375 20.6982421875Q56.50390625 20.6982421875 57.15869140625 19.9599609375Q57.8134765625 19.2216796875 57.8134765625 17.8154296875Q57.8134765625 16.4443359375 57.15869140625 15.7060546875Q56.50390625 14.9677734375 55.537109375 14.9677734375Q54.5703125 14.9677734375 53.9111328125 15.7060546875Q53.251953125 16.4443359375 53.251953125 17.8330078125Z M62.1025390625 13.166015625H64.37890625V14.4404296875Q65.6005859375 12.955078125 67.2880859375 12.955078125Q68.1845703125 12.955078125 68.84375 13.32421875Q69.5029296875 13.693359375 69.9248046875 14.4404296875Q70.5400390625 13.693359375 71.251953125 13.32421875Q71.9638671875 12.955078125 72.7724609375 12.955078125Q73.80078125 12.955078125 74.5126953125 13.37255859375Q75.224609375 13.7900390625 75.576171875 14.5986328125Q75.8310546875 15.1962890625 75.8310546875 16.5322265625V22.5H73.361328125V17.1650390625Q73.361328125 15.7763671875 73.1064453125 15.3720703125Q72.763671875 14.8447265625 72.0517578125 14.8447265625Q71.533203125 14.8447265625 71.076171875 15.1611328125Q70.619140625 15.4775390625 70.4169921875 16.08837890625Q70.21484375 16.69921875 70.21484375 18.017578125V22.5H67.7451171875V17.384765625Q67.7451171875 16.0224609375 67.61328125 15.626953125Q67.4814453125 15.2314453125 67.20458984375 15.0380859375Q66.927734375 14.8447265625 66.453125 14.8447265625Q65.8818359375 14.8447265625 65.4248046875 15.15234375Q64.9677734375 15.4599609375 64.77001953125 16.0400390625Q64.572265625 16.6201171875 64.572265625 17.96484375V22.5H62.1025390625Z M86.8525390625 22.5H84.55859375V21.12890625Q83.9873046875 21.9287109375 83.20947265625 22.31982421875Q82.431640625 22.7109375 81.640625 22.7109375Q80.0322265625 22.7109375 78.88525390625 21.41455078125Q77.73828125 20.1181640625 77.73828125 17.7978515625Q77.73828125 15.4248046875 78.8544921875 14.18994140625Q79.970703125 12.955078125 81.67578125 12.955078125Q83.240234375 12.955078125 84.3828125 14.255859375V9.615234375H86.8525390625ZM80.2607421875 17.630859375Q80.2607421875 19.125 80.673828125 19.79296875Q81.271484375 20.759765625 82.34375 20.759765625Q83.1962890625 20.759765625 83.7939453125 20.03466796875Q84.3916015625 19.3095703125 84.3916015625 17.8681640625Q84.3916015625 16.259765625 83.8115234375 15.55224609375Q83.2314453125 14.8447265625 82.326171875 14.8447265625Q81.447265625 14.8447265625 80.85400390625 15.54345703125Q80.2607421875 16.2421875 80.2607421875 17.630859375Z" fill="#fafafa"/>
</svg>
